<mxfile host="Electron" agent="Mozilla/5.0 (Windows NT 10.0; Win64; x64) AppleWebKit/537.36 (KHTML, like Gecko) draw.io/24.7.5 Chrome/126.0.6478.183 Electron/31.3.0 Safari/537.36" version="24.7.5">
  <diagram name="Page-1" id="n9E1XTD_DQSyfCGxi7cG">
    <mxGraphModel dx="2501" dy="2005" grid="1" gridSize="10" guides="1" tooltips="1" connect="1" arrows="1" fold="1" page="1" pageScale="1" pageWidth="827" pageHeight="1169" math="0" shadow="0">
      <root>
        <mxCell id="0" />
        <mxCell id="1" parent="0" />
        <mxCell id="ZpvR_h13-n_buo6YeEwf-9" value="" style="edgeStyle=orthogonalEdgeStyle;rounded=0;orthogonalLoop=1;jettySize=auto;html=1;" parent="1" source="ZpvR_h13-n_buo6YeEwf-2" target="ZpvR_h13-n_buo6YeEwf-3" edge="1">
          <mxGeometry relative="1" as="geometry" />
        </mxCell>
        <mxCell id="ZpvR_h13-n_buo6YeEwf-2" value="Client" style="ellipse;whiteSpace=wrap;html=1;aspect=fixed;" parent="1" vertex="1">
          <mxGeometry x="-100" y="260" width="80" height="80" as="geometry" />
        </mxCell>
        <mxCell id="ZpvR_h13-n_buo6YeEwf-3" value="API Gateway" style="rounded=0;whiteSpace=wrap;html=1;" parent="1" vertex="1">
          <mxGeometry x="10" y="270" width="120" height="60" as="geometry" />
        </mxCell>
        <mxCell id="ZpvR_h13-n_buo6YeEwf-11" value="Ceph" style="shape=cylinder3;whiteSpace=wrap;html=1;boundedLbl=1;backgroundOutline=1;size=15;" parent="1" vertex="1">
          <mxGeometry x="730" width="60" height="80" as="geometry" />
        </mxCell>
        <mxCell id="ZpvR_h13-n_buo6YeEwf-13" value="Elastic&lt;div&gt;Search&lt;/div&gt;" style="shape=cylinder3;whiteSpace=wrap;html=1;boundedLbl=1;backgroundOutline=1;size=15;" parent="1" vertex="1">
          <mxGeometry x="530" width="60" height="80" as="geometry" />
        </mxCell>
        <mxCell id="ZpvR_h13-n_buo6YeEwf-88" value="" style="edgeStyle=orthogonalEdgeStyle;rounded=0;orthogonalLoop=1;jettySize=auto;html=1;" parent="1" source="ZpvR_h13-n_buo6YeEwf-19" target="ZpvR_h13-n_buo6YeEwf-87" edge="1">
          <mxGeometry relative="1" as="geometry" />
        </mxCell>
        <mxCell id="ZpvR_h13-n_buo6YeEwf-98" value="" style="edgeStyle=orthogonalEdgeStyle;rounded=0;orthogonalLoop=1;jettySize=auto;html=1;entryX=0.5;entryY=1;entryDx=0;entryDy=0;entryPerimeter=0;" parent="1" source="ZpvR_h13-n_buo6YeEwf-19" target="ZpvR_h13-n_buo6YeEwf-11" edge="1">
          <mxGeometry relative="1" as="geometry" />
        </mxCell>
        <mxCell id="ZpvR_h13-n_buo6YeEwf-19" value="Media&lt;div&gt;Service&lt;/div&gt;" style="whiteSpace=wrap;html=1;aspect=fixed;" parent="1" vertex="1">
          <mxGeometry x="720" y="130" width="80" height="80" as="geometry" />
        </mxCell>
        <mxCell id="ZpvR_h13-n_buo6YeEwf-22" style="edgeStyle=orthogonalEdgeStyle;rounded=0;orthogonalLoop=1;jettySize=auto;html=1;entryX=0;entryY=0.5;entryDx=0;entryDy=0;exitX=0.995;exitY=0.132;exitDx=0;exitDy=0;exitPerimeter=0;" parent="1" source="ZpvR_h13-n_buo6YeEwf-3" target="ZpvR_h13-n_buo6YeEwf-23" edge="1">
          <mxGeometry relative="1" as="geometry">
            <mxPoint x="360" y="240" as="sourcePoint" />
            <mxPoint x="480" y="160" as="targetPoint" />
            <Array as="points">
              <mxPoint x="370" y="278" />
              <mxPoint x="370" y="170" />
            </Array>
          </mxGeometry>
        </mxCell>
        <mxCell id="ZpvR_h13-n_buo6YeEwf-97" value="" style="edgeStyle=orthogonalEdgeStyle;rounded=0;orthogonalLoop=1;jettySize=auto;html=1;" parent="1" source="ZpvR_h13-n_buo6YeEwf-23" target="ZpvR_h13-n_buo6YeEwf-13" edge="1">
          <mxGeometry relative="1" as="geometry" />
        </mxCell>
        <mxCell id="ZpvR_h13-n_buo6YeEwf-23" value="Description Service" style="whiteSpace=wrap;html=1;aspect=fixed;" parent="1" vertex="1">
          <mxGeometry x="520" y="130" width="80" height="80" as="geometry" />
        </mxCell>
        <mxCell id="ZpvR_h13-n_buo6YeEwf-25" value="" style="edgeStyle=orthogonalEdgeStyle;rounded=0;orthogonalLoop=1;jettySize=auto;html=1;" parent="1" source="ZpvR_h13-n_buo6YeEwf-23" target="ZpvR_h13-n_buo6YeEwf-89" edge="1">
          <mxGeometry relative="1" as="geometry" />
        </mxCell>
        <mxCell id="ZpvR_h13-n_buo6YeEwf-81" value="" style="edgeStyle=orthogonalEdgeStyle;rounded=0;orthogonalLoop=1;jettySize=auto;html=1;" parent="1" source="ZpvR_h13-n_buo6YeEwf-24" target="ZpvR_h13-n_buo6YeEwf-49" edge="1">
          <mxGeometry relative="1" as="geometry" />
        </mxCell>
        <mxCell id="ZpvR_h13-n_buo6YeEwf-24" value="Posts&lt;div&gt;Service&lt;/div&gt;" style="whiteSpace=wrap;html=1;aspect=fixed;" parent="1" vertex="1">
          <mxGeometry x="520" y="360" width="80" height="80" as="geometry" />
        </mxCell>
        <mxCell id="ZpvR_h13-n_buo6YeEwf-28" value="" style="endArrow=classic;html=1;rounded=0;entryX=0.5;entryY=1;entryDx=0;entryDy=0;entryPerimeter=0;" parent="1" target="ZpvR_h13-n_buo6YeEwf-87" edge="1">
          <mxGeometry width="50" height="50" relative="1" as="geometry">
            <mxPoint x="570" y="358" as="sourcePoint" />
            <mxPoint x="650" y="350" as="targetPoint" />
            <Array as="points">
              <mxPoint x="570" y="320" />
              <mxPoint x="670" y="320" />
              <mxPoint x="760" y="320" />
            </Array>
          </mxGeometry>
        </mxCell>
        <mxCell id="ZpvR_h13-n_buo6YeEwf-40" value="" style="edgeStyle=orthogonalEdgeStyle;rounded=0;orthogonalLoop=1;jettySize=auto;html=1;" parent="1" source="ZpvR_h13-n_buo6YeEwf-24" target="ZpvR_h13-n_buo6YeEwf-74" edge="1">
          <mxGeometry relative="1" as="geometry" />
        </mxCell>
        <mxCell id="ZpvR_h13-n_buo6YeEwf-85" value="" style="edgeStyle=orthogonalEdgeStyle;rounded=0;orthogonalLoop=1;jettySize=auto;html=1;entryX=0.5;entryY=1;entryDx=0;entryDy=0;exitX=0.5;exitY=0;exitDx=0;exitDy=0;" parent="1" source="ZpvR_h13-n_buo6YeEwf-36" target="ZpvR_h13-n_buo6YeEwf-74" edge="1">
          <mxGeometry relative="1" as="geometry">
            <mxPoint x="720" y="520" as="sourcePoint" />
            <mxPoint x="680" y="440" as="targetPoint" />
            <Array as="points" />
          </mxGeometry>
        </mxCell>
        <mxCell id="ZpvR_h13-n_buo6YeEwf-103" value="" style="edgeStyle=orthogonalEdgeStyle;rounded=0;orthogonalLoop=1;jettySize=auto;html=1;" parent="1" source="ZpvR_h13-n_buo6YeEwf-36" target="ZpvR_h13-n_buo6YeEwf-39" edge="1">
          <mxGeometry relative="1" as="geometry" />
        </mxCell>
        <mxCell id="ZpvR_h13-n_buo6YeEwf-36" value="Timeline&lt;div&gt;Service&lt;/div&gt;" style="whiteSpace=wrap;html=1;aspect=fixed;" parent="1" vertex="1">
          <mxGeometry x="520" y="620" width="80" height="80" as="geometry" />
        </mxCell>
        <mxCell id="ZpvR_h13-n_buo6YeEwf-37" value="" style="endArrow=classic;html=1;rounded=0;entryX=0.363;entryY=0.013;entryDx=0;entryDy=0;entryPerimeter=0;" parent="1" target="ZpvR_h13-n_buo6YeEwf-24" edge="1">
          <mxGeometry width="50" height="50" relative="1" as="geometry">
            <mxPoint x="130" y="309" as="sourcePoint" />
            <mxPoint x="440" y="270" as="targetPoint" />
            <Array as="points">
              <mxPoint x="549" y="309" />
            </Array>
          </mxGeometry>
        </mxCell>
        <mxCell id="ZpvR_h13-n_buo6YeEwf-38" value="" style="endArrow=classic;html=1;rounded=0;exitX=0.5;exitY=1;exitDx=0;exitDy=0;entryX=0;entryY=0.5;entryDx=0;entryDy=0;" parent="1" source="ZpvR_h13-n_buo6YeEwf-3" target="ZpvR_h13-n_buo6YeEwf-36" edge="1">
          <mxGeometry width="50" height="50" relative="1" as="geometry">
            <mxPoint x="470" y="650" as="sourcePoint" />
            <mxPoint x="470" y="600" as="targetPoint" />
            <Array as="points">
              <mxPoint x="70" y="660" />
            </Array>
          </mxGeometry>
        </mxCell>
        <mxCell id="ZpvR_h13-n_buo6YeEwf-39" value="TNT" style="shape=cylinder3;whiteSpace=wrap;html=1;boundedLbl=1;backgroundOutline=1;size=15;" parent="1" vertex="1">
          <mxGeometry x="530" y="740" width="60" height="80" as="geometry" />
        </mxCell>
        <mxCell id="ZpvR_h13-n_buo6YeEwf-44" style="edgeStyle=orthogonalEdgeStyle;rounded=0;orthogonalLoop=1;jettySize=auto;html=1;exitX=0.5;exitY=1;exitDx=0;exitDy=0;" parent="1" edge="1">
          <mxGeometry relative="1" as="geometry">
            <mxPoint x="525" as="sourcePoint" />
            <mxPoint x="525" as="targetPoint" />
          </mxGeometry>
        </mxCell>
        <mxCell id="ZpvR_h13-n_buo6YeEwf-47" value="PG" style="shape=cylinder3;whiteSpace=wrap;html=1;boundedLbl=1;backgroundOutline=1;size=15;" parent="1" vertex="1">
          <mxGeometry x="190" y="360" width="60" height="80" as="geometry" />
        </mxCell>
        <mxCell id="ZpvR_h13-n_buo6YeEwf-49" value="PG" style="shape=cylinder3;whiteSpace=wrap;html=1;boundedLbl=1;backgroundOutline=1;size=15;" parent="1" vertex="1">
          <mxGeometry x="420" y="360" width="60" height="80" as="geometry" />
        </mxCell>
        <mxCell id="ZpvR_h13-n_buo6YeEwf-59" value="Reactions&lt;div&gt;Service&lt;/div&gt;" style="whiteSpace=wrap;html=1;aspect=fixed;" parent="1" vertex="1">
          <mxGeometry x="1000" y="120" width="80" height="80" as="geometry" />
        </mxCell>
        <mxCell id="ZpvR_h13-n_buo6YeEwf-101" value="" style="edgeStyle=orthogonalEdgeStyle;rounded=0;orthogonalLoop=1;jettySize=auto;html=1;" parent="1" source="ZpvR_h13-n_buo6YeEwf-60" target="ZpvR_h13-n_buo6YeEwf-66" edge="1">
          <mxGeometry relative="1" as="geometry" />
        </mxCell>
        <mxCell id="ZpvR_h13-n_buo6YeEwf-60" value="Comments&lt;div&gt;Service&lt;/div&gt;" style="whiteSpace=wrap;html=1;aspect=fixed;" parent="1" vertex="1">
          <mxGeometry x="1000" y="360" width="80" height="80" as="geometry" />
        </mxCell>
        <mxCell id="ZpvR_h13-n_buo6YeEwf-66" value="PG" style="shape=cylinder3;whiteSpace=wrap;html=1;boundedLbl=1;backgroundOutline=1;size=15;" parent="1" vertex="1">
          <mxGeometry x="1010" y="470" width="60" height="80" as="geometry" />
        </mxCell>
        <mxCell id="ZpvR_h13-n_buo6YeEwf-68" value="PG" style="shape=cylinder3;whiteSpace=wrap;html=1;boundedLbl=1;backgroundOutline=1;size=15;" parent="1" vertex="1">
          <mxGeometry x="1010" width="60" height="80" as="geometry" />
        </mxCell>
        <mxCell id="ZpvR_h13-n_buo6YeEwf-74" value="Kafka" style="rounded=0;whiteSpace=wrap;html=1;" parent="1" vertex="1">
          <mxGeometry x="520" y="500" width="80" height="40" as="geometry" />
        </mxCell>
        <mxCell id="ZpvR_h13-n_buo6YeEwf-76" value="" style="endArrow=classic;html=1;rounded=0;entryX=0.5;entryY=0;entryDx=0;entryDy=0;" parent="1" target="ZpvR_h13-n_buo6YeEwf-77" edge="1">
          <mxGeometry width="50" height="50" relative="1" as="geometry">
            <mxPoint x="320" y="310" as="sourcePoint" />
            <mxPoint x="535" y="380" as="targetPoint" />
            <Array as="points">
              <mxPoint x="320" y="310" />
            </Array>
          </mxGeometry>
        </mxCell>
        <mxCell id="ZpvR_h13-n_buo6YeEwf-96" value="" style="edgeStyle=orthogonalEdgeStyle;rounded=0;orthogonalLoop=1;jettySize=auto;html=1;" parent="1" source="ZpvR_h13-n_buo6YeEwf-77" target="ZpvR_h13-n_buo6YeEwf-47" edge="1">
          <mxGeometry relative="1" as="geometry" />
        </mxCell>
        <mxCell id="ZpvR_h13-n_buo6YeEwf-77" value="Relations&lt;div&gt;Service&lt;/div&gt;" style="whiteSpace=wrap;html=1;aspect=fixed;" parent="1" vertex="1">
          <mxGeometry x="280" y="360" width="80" height="80" as="geometry" />
        </mxCell>
        <mxCell id="ZpvR_h13-n_buo6YeEwf-84" value="" style="endArrow=classic;html=1;rounded=0;exitX=0.5;exitY=1;exitDx=0;exitDy=0;entryX=0;entryY=0.5;entryDx=0;entryDy=0;" parent="1" source="ZpvR_h13-n_buo6YeEwf-77" target="ZpvR_h13-n_buo6YeEwf-74" edge="1">
          <mxGeometry width="50" height="50" relative="1" as="geometry">
            <mxPoint x="475" y="530" as="sourcePoint" />
            <mxPoint x="525" y="480" as="targetPoint" />
            <Array as="points">
              <mxPoint x="320" y="520" />
            </Array>
          </mxGeometry>
        </mxCell>
        <mxCell id="ZpvR_h13-n_buo6YeEwf-87" value="Kafka" style="rounded=0;whiteSpace=wrap;html=1;" parent="1" vertex="1">
          <mxGeometry x="720" y="250" width="80" height="40" as="geometry" />
        </mxCell>
        <mxCell id="ZpvR_h13-n_buo6YeEwf-90" value="" style="edgeStyle=orthogonalEdgeStyle;rounded=0;orthogonalLoop=1;jettySize=auto;html=1;" parent="1" source="ZpvR_h13-n_buo6YeEwf-24" target="ZpvR_h13-n_buo6YeEwf-89" edge="1">
          <mxGeometry relative="1" as="geometry">
            <mxPoint x="560" y="360" as="sourcePoint" />
            <mxPoint x="560" y="210" as="targetPoint" />
          </mxGeometry>
        </mxCell>
        <mxCell id="ZpvR_h13-n_buo6YeEwf-89" value="Kafka" style="rounded=0;whiteSpace=wrap;html=1;" parent="1" vertex="1">
          <mxGeometry x="520" y="240" width="80" height="40" as="geometry" />
        </mxCell>
        <mxCell id="ZpvR_h13-n_buo6YeEwf-91" value="" style="endArrow=classic;html=1;rounded=0;entryX=0.5;entryY=0;entryDx=0;entryDy=0;" parent="1" target="ZpvR_h13-n_buo6YeEwf-60" edge="1">
          <mxGeometry width="50" height="50" relative="1" as="geometry">
            <mxPoint x="550" y="310" as="sourcePoint" />
            <mxPoint x="600" y="260" as="targetPoint" />
            <Array as="points">
              <mxPoint x="1040" y="310" />
            </Array>
          </mxGeometry>
        </mxCell>
        <mxCell id="ZpvR_h13-n_buo6YeEwf-92" value="" style="endArrow=classic;html=1;rounded=0;entryX=0.5;entryY=1;entryDx=0;entryDy=0;" parent="1" target="ZpvR_h13-n_buo6YeEwf-59" edge="1">
          <mxGeometry width="50" height="50" relative="1" as="geometry">
            <mxPoint x="1040" y="310" as="sourcePoint" />
            <mxPoint x="1085" y="260" as="targetPoint" />
          </mxGeometry>
        </mxCell>
        <mxCell id="ZpvR_h13-n_buo6YeEwf-95" value="" style="endArrow=classic;html=1;rounded=0;entryX=0.5;entryY=0;entryDx=0;entryDy=0;exitX=1;exitY=0.5;exitDx=0;exitDy=0;" parent="1" source="ZpvR_h13-n_buo6YeEwf-24" target="M2mnblRQZFIBiEqlO1s_-2" edge="1">
          <mxGeometry width="50" height="50" relative="1" as="geometry">
            <mxPoint x="720" y="470" as="sourcePoint" />
            <mxPoint x="630" y="400" as="targetPoint" />
            <Array as="points">
              <mxPoint x="700" y="400" />
            </Array>
          </mxGeometry>
        </mxCell>
        <mxCell id="ZpvR_h13-n_buo6YeEwf-100" value="" style="endArrow=classic;html=1;rounded=0;exitX=0.5;exitY=0;exitDx=0;exitDy=0;entryX=0.5;entryY=1;entryDx=0;entryDy=0;entryPerimeter=0;" parent="1" source="ZpvR_h13-n_buo6YeEwf-59" target="ZpvR_h13-n_buo6YeEwf-68" edge="1">
          <mxGeometry width="50" height="50" relative="1" as="geometry">
            <mxPoint x="980" y="140" as="sourcePoint" />
            <mxPoint x="1040" y="90" as="targetPoint" />
            <Array as="points">
              <mxPoint x="1040" y="100" />
            </Array>
          </mxGeometry>
        </mxCell>
        <mxCell id="ZpvR_h13-n_buo6YeEwf-104" value="" style="endArrow=classic;html=1;rounded=0;exitX=0.75;exitY=0;exitDx=0;exitDy=0;entryX=0.5;entryY=1;entryDx=0;entryDy=0;" parent="1" source="ZpvR_h13-n_buo6YeEwf-24" target="ZpvR_h13-n_buo6YeEwf-106" edge="1">
          <mxGeometry width="50" height="50" relative="1" as="geometry">
            <mxPoint x="830" y="360" as="sourcePoint" />
            <mxPoint x="880" y="310" as="targetPoint" />
            <Array as="points">
              <mxPoint x="580" y="330" />
              <mxPoint x="920" y="330" />
            </Array>
          </mxGeometry>
        </mxCell>
        <mxCell id="ZpvR_h13-n_buo6YeEwf-106" value="Kafka" style="rounded=0;whiteSpace=wrap;html=1;" parent="1" vertex="1">
          <mxGeometry x="880" y="250" width="80" height="40" as="geometry" />
        </mxCell>
        <mxCell id="ZpvR_h13-n_buo6YeEwf-107" value="Kafka" style="rounded=0;whiteSpace=wrap;html=1;" parent="1" vertex="1">
          <mxGeometry x="880" y="360" width="80" height="40" as="geometry" />
        </mxCell>
        <mxCell id="ZpvR_h13-n_buo6YeEwf-108" value="" style="endArrow=classic;html=1;rounded=0;entryX=0.5;entryY=0;entryDx=0;entryDy=0;" parent="1" target="ZpvR_h13-n_buo6YeEwf-107" edge="1">
          <mxGeometry width="50" height="50" relative="1" as="geometry">
            <mxPoint x="920" y="330" as="sourcePoint" />
            <mxPoint x="930" y="360" as="targetPoint" />
            <Array as="points">
              <mxPoint x="920" y="340" />
              <mxPoint x="920" y="350" />
            </Array>
          </mxGeometry>
        </mxCell>
        <mxCell id="ZpvR_h13-n_buo6YeEwf-109" value="" style="edgeStyle=orthogonalEdgeStyle;rounded=0;orthogonalLoop=1;jettySize=auto;html=1;exitX=0;exitY=0.5;exitDx=0;exitDy=0;" parent="1" source="ZpvR_h13-n_buo6YeEwf-59" edge="1">
          <mxGeometry relative="1" as="geometry">
            <mxPoint x="919.58" y="210" as="sourcePoint" />
            <mxPoint x="919.58" y="250" as="targetPoint" />
          </mxGeometry>
        </mxCell>
        <mxCell id="ZpvR_h13-n_buo6YeEwf-110" value="" style="edgeStyle=orthogonalEdgeStyle;rounded=0;orthogonalLoop=1;jettySize=auto;html=1;exitX=0;exitY=0.75;exitDx=0;exitDy=0;" parent="1" source="ZpvR_h13-n_buo6YeEwf-60" edge="1">
          <mxGeometry relative="1" as="geometry">
            <mxPoint x="919.5799999999999" y="480" as="sourcePoint" />
            <mxPoint x="919.5799999999999" y="400" as="targetPoint" />
            <Array as="points">
              <mxPoint x="920" y="420" />
            </Array>
          </mxGeometry>
        </mxCell>
        <mxCell id="ZpvR_h13-n_buo6YeEwf-113" value="" style="endArrow=classic;html=1;rounded=0;entryX=0.5;entryY=0;entryDx=0;entryDy=0;" parent="1" target="ZpvR_h13-n_buo6YeEwf-60" edge="1">
          <mxGeometry width="50" height="50" relative="1" as="geometry">
            <mxPoint x="550" y="310" as="sourcePoint" />
            <mxPoint x="1040" y="360" as="targetPoint" />
            <Array as="points">
              <mxPoint x="1040" y="310" />
            </Array>
          </mxGeometry>
        </mxCell>
        <mxCell id="M2mnblRQZFIBiEqlO1s_-2" value="Kafka" style="rounded=0;whiteSpace=wrap;html=1;" parent="1" vertex="1">
          <mxGeometry x="660" y="500" width="80" height="40" as="geometry" />
        </mxCell>
        <mxCell id="M2mnblRQZFIBiEqlO1s_-3" value="" style="edgeStyle=orthogonalEdgeStyle;rounded=0;orthogonalLoop=1;jettySize=auto;html=1;entryX=0.5;entryY=1;entryDx=0;entryDy=0;exitX=1;exitY=0.25;exitDx=0;exitDy=0;" parent="1" source="ZpvR_h13-n_buo6YeEwf-36" target="M2mnblRQZFIBiEqlO1s_-2" edge="1">
          <mxGeometry relative="1" as="geometry">
            <mxPoint x="659.29" y="630" as="sourcePoint" />
            <mxPoint x="659.29" y="570" as="targetPoint" />
            <Array as="points" />
          </mxGeometry>
        </mxCell>
      </root>
    </mxGraphModel>
  </diagram>
</mxfile>
